<?xml version="1.0" encoding="UTF-8"?>
<svg id="_图层_1" data-name="图层 1" xmlns="http://www.w3.org/2000/svg" viewBox="0 0 794.9 271.94">
  <defs>
    <style>
      .cls-1 {
        fill: #1c1918;
      }

      .cls-2 {
        letter-spacing: 0em;
      }

      .cls-3 {
        letter-spacing: -.23em;
      }

      .cls-4 {
        font-size: 75.33px;
      }

      .cls-4, .cls-5 {
        fill: #231815;
        font-family: STHupo, STHupo;
      }

      .cls-6 {
        fill: none;
      }

      .cls-5 {
        font-size: 76.23px;
      }

      .cls-7 {
        letter-spacing: 0em;
      }
    </style>
  </defs>
  <path class="cls-6" d="M557.15,151.65c0,.46,.14,.86,.42,1.18,.28,.33,.6,.62,.97,.9l5.97,4.31,5.83-4.31c.92-.65,1.39-1.34,1.39-2.08v-9.44h-14.58v9.44Z"/>
  <path d="M11.8,164.01l5.42-66.94H7.36L1.94,163.74c-.19,1.48-.6,2.5-1.25,3.05l-.69,.69v10.42l9.58-9.31c1.3-1.3,2.04-2.82,2.22-4.58Z"/>
  <polygon points="18.75 187.48 38.88 187.48 38.88 85.55 54.02 85.55 54.02 77.77 38.88 77.77 38.88 57.22 18.75 57.22 18.75 77.77 1.94 77.77 1.94 85.55 18.75 85.55 18.75 187.48"/>
  <path d="M82.49,177.9c1.67-2.04,2.59-4.44,2.78-7.22l2.36-43.61h-9.72l10.69-27.36h8.89l10.42,27.36h-7.22v60.41h21.94v-59.16h7.64l-10.83-28.61h10v-7.78h-37.77l8.33-20.97h14.86c1.67,0,3.26-.4,4.79-1.2,1.53-.8,2.75-1.91,3.68-3.32l5.83-8.95h-23.05l-2.92,4.3c-.65,.93-1.48,1.39-2.5,1.39H56.94v7.78h21.11l-8.33,20.97h-13.75v7.78h10.69l-11.25,28.61h10.28l-2.64,47.22c-.19,1.76-1.07,2.87-2.64,3.33l-2.08,.83v7.78l17.64-5.28c2.68-.83,4.86-2.27,6.53-4.31Z"/>
  <path d="M55.69,163.74l-5.42-66.66h-9.86l5.42,66.94c.18,1.76,.92,3.29,2.22,4.58l9.58,9.31v-10.42l-.69-.69c-.65-.56-1.06-1.58-1.25-3.05Z"/>
  <rect x="229.42" y="105.55" width="21.94" height="81.93"/>
  <path d="M175.88,166.1c.88-1.3,1.41-2.73,1.6-4.31l6.11-56.1h-21.94l-6.53,62.63c-.19,.83-.6,1.43-1.25,1.81l-15,8.89v8.47l33.61-18.33c1.39-.74,2.52-1.76,3.4-3.05Z"/>
  <path d="M263.16,97.08l-6.94-30.14c-.56-2.41-1.78-4.33-3.68-5.76-1.9-1.43-4.1-2.15-6.6-2.15h-83.32c-2.5,0-4.68,.72-6.53,2.15-1.85,1.44-3.06,3.36-3.61,5.76l-6.94,29.86c-.37,1.58-1.34,2.69-2.92,3.33l-3.75,1.53v8.33l21.25-8.19c2.22-.83,4.1-2.08,5.62-3.75,1.53-1.67,2.57-3.7,3.12-6.11l5.14-22.22c.18-.92,.65-1.64,1.39-2.15,.74-.51,1.57-.76,2.5-.76h52.77c.92,0,1.76,.26,2.5,.76,.74,.51,1.2,1.23,1.39,2.15l5.14,22.36c1.11,4.63,3.98,7.87,8.61,9.72l20.83,8.19v-8.33l-3.19-1.25c-1.39-.56-2.32-1.67-2.78-3.33Z"/>
  <polygon points="538.54 91.38 527.99 119.44 544.38 119.44 554.1 93.19 554.1 120.41 574.79 120.41 574.79 93.61 584.51 119.44 600.76 119.44 590.34 91.38 574.79 91.38 574.79 87.22 599.09 87.22 599.09 79.44 593.95 79.44 598.4 58.19 581.87 58.19 577.71 79.44 574.79 79.44 574.79 57.22 554.1 57.22 554.1 79.44 551.18 79.44 546.88 58.19 530.49 58.19 534.79 79.44 529.52 79.44 529.52 87.22 554.1 87.22 554.1 91.38 538.54 91.38"/>
  <polygon points="624.92 83.19 657.97 83.19 657.97 75.41 626.87 75.41 631.45 56.8 609.37 56.8 599.51 96.94 621.45 96.94 624.92 83.19"/>
  <path d="M602.98,187.34l27.5-18.19,27.36,18.19v-9.86l-19.86-13.33,6.53-4.31c1.85-1.3,3.29-2.68,4.3-4.17,1.02-1.48,1.62-3.33,1.81-5.56l6.53-57.77h-20l-6.53,62.22-8.33-50.69h-20.27l8.05,46.52c.46,2.13,1.18,3.89,2.15,5.28,.97,1.39,2.34,2.73,4.1,4.03l6.94,4.58-20.27,13.47v9.58Z"/>
  <path d="M591.66,157.97c.97-1.34,1.46-2.94,1.46-4.79v-10.97h7.22v-7.78h-7.22v-9.3h-21.39v9.3h-14.58v-9.3h-21.25v9.3h-7.36v7.78h7.36v10.97c0,1.85,.46,3.45,1.39,4.79,.92,1.34,2.17,2.62,3.75,3.82l8.75,6.94-12.22,8.75c-1.3,.83-2.55,1.3-3.75,1.39l-5.28,1.11v7.5l27.22-3.89c1.57-.19,3.01-.51,4.3-.97,1.3-.46,2.68-1.2,4.17-2.22l.14-.14,.14,.14c1.3,1.02,2.64,1.76,4.03,2.22,1.39,.46,2.87,.79,4.44,.97l27.36,3.89v-7.5l-5.28-1.11c-1.2-.09-2.45-.56-3.75-1.39l-12.22-8.89,8.75-6.8c1.57-1.2,2.85-2.48,3.82-3.82Zm-19.93-6.32c0,.74-.46,1.44-1.39,2.08l-5.83,4.31-5.97-4.31c-.37-.28-.69-.58-.97-.9-.28-.32-.42-.72-.42-1.18v-9.44h14.58v9.44Z"/>
  <path d="M673.94,94.86h11.25v42.36l-18.47,3.19v8.47l18.47-3.19v41.8h21.94v-45.55l8.05-1.39v-8.47l-8.05,1.39v-38.61h8.05v-7.78h-8.05v-29.86h-21.94v29.86h-4.03c-.47,0-.86-.16-1.18-.49-.33-.32-.44-.72-.35-1.18l2.36-22.77h-12.91l-2.36,24.03c-.19,2.41,.39,4.38,1.74,5.9,1.34,1.53,3.17,2.29,5.49,2.29Z"/>
  <path d="M792.47,69.09c-1.62-1.62-3.64-2.43-6.04-2.43h-42.36l2.08-9.44h-19.58l-9.03,40.97h15l-16.39,89.3h17.91l18.19-99.29h-12.92l3.06-13.75h29.16c.56,0,1.04,.21,1.46,.62,.42,.42,.63,.9,.63,1.46v11.66h-13.89l-18.19,99.29h17.36l14.72-80.41v70.55c0,.56-.21,1.04-.63,1.46s-.9,.62-1.46,.62h-5.14l3.75,7.78h16.25c2.41,0,4.42-.81,6.04-2.43,1.62-1.62,2.43-3.63,2.43-6.04V75.14c0-2.41-.81-4.42-2.43-6.04Z"/>
  <polygon class="cls-1" points="405.5 268.29 453.97 222.37 458.11 244.91 497.77 202.12 504.04 168.93 502.73 118.58 405.5 268.29"/>
  <polygon class="cls-1" points="381.15 75.24 396.81 154.09 412.47 75.24 440.97 54.93 396.81 47.07 352.66 54.93 381.15 75.24"/>
  <polygon class="cls-1" points="289.59 168.93 295.85 202.12 335.52 244.91 339.65 222.37 388.12 268.29 290.9 118.58 289.59 168.93"/>
  <path d="M488.22,133.88l-.97-38.92L439.41,0s8.23,79.72,12.3,119.13c-18.24,18.24-36.12,36.12-54.02,54.02-17.9-17.9-35.78-35.78-54.02-54.02,4.07-39.41,12.3-119.13,12.3-119.13l-47.83,94.96-.97,38.92,90.07,122.08v1.09l.05,.07,.4-.55,.4,.55,.05-.07v-1.09l90.07-122.08Z"/>
  <text class="cls-5" transform="translate(13.11 254.18) scale(.8 1)"><tspan x="0" y="0">Bridgedp</tspan></text>
  <text class="cls-4" transform="translate(537.83 254.18) scale(.78 1)"><tspan x="0" y="0">R</tspan><tspan class="cls-3" x="45.05" y="0">  </tspan><tspan x="47.6" y="0">o</tspan><tspan class="cls-3" x="89.71" y="0">  </tspan><tspan x="92.26" y="0">b</tspan><tspan class="cls-3" x="135.88" y="0">  </tspan><tspan x="138.43" y="0">o</tspan><tspan class="cls-3" x="180.54" y="0">  </tspan><tspan x="183.1" y="0">t</tspan><tspan class="cls-3" x="208.26" y="0">  </tspan><tspan x="210.81" y="0">i</tspan><tspan class="cls-3" x="232.66" y="0">  </tspan><tspan class="cls-7" x="235.21" y="0">c</tspan><tspan class="cls-3" x="277.4" y="0">  </tspan><tspan class="cls-2" x="279.95" y="0">s</tspan></text>
</svg>